<svg xmlns="http://www.w3.org/2000/svg" width="42.851" height="41.793" viewBox="0 0 42.851 41.793"><path d="M157.743,107.44a21.428,21.428,0,0,0-6.771,41.757c1.072.2,1.463-.464,1.463-1.033,0-.509-.018-1.856-.029-3.645-5.96,1.3-7.217-2.871-7.217-2.871a5.675,5.675,0,0,0-2.379-3.134c-1.945-1.33.147-1.3.147-1.3a4.5,4.5,0,0,1,3.282,2.207c1.911,3.275,5.015,2.329,6.236,1.781a4.58,4.58,0,0,1,1.36-2.865c-4.757-.541-9.759-2.378-9.759-10.589A8.283,8.283,0,0,1,146.281,122a7.7,7.7,0,0,1,.21-5.67s1.8-.576,5.891,2.2a20.318,20.318,0,0,1,10.728,0c4.091-2.773,5.886-2.2,5.886-2.2a7.7,7.7,0,0,1,.214,5.67,8.268,8.268,0,0,1,2.2,5.749c0,8.231-5.01,10.042-9.783,10.572a5.116,5.116,0,0,1,1.455,3.968c0,2.865-.026,5.176-.026,5.878,0,.572.387,1.239,1.473,1.03a21.429,21.429,0,0,0-6.787-41.754Z" transform="translate(-136.32 -107.44)" fill="#fff" fill-rule="evenodd"/></svg>