<svg xmlns="http://www.w3.org/2000/svg" width="202.763" height="48.024" viewBox="0 0 202.763 48.024"><g transform="translate(-135.536 -270.976)"><path d="M56.88,0V-25.128c0-7.128-3.816-10.512-10.224-10.512A14.758,14.758,0,0,0,34.7-29.3c-1.3-3.96-4.536-6.336-9.648-6.336-5.328,0-9.936,3.312-11.376,5.4v-4.536H4.536V0H13.68V-23.4a9.333,9.333,0,0,1,7.2-4.1c3.744,0,5.184,2.3,5.184,5.544V0H35.28V-23.472a9.232,9.232,0,0,1,7.2-4.032c3.744,0,5.184,2.3,5.184,5.544V0Z" transform="translate(131 319)" fill="#fff"/><path d="M14.976,0V-17.064h12.24c10.368,0,16.128-7.128,16.128-15.48,0-8.424-5.688-15.48-16.128-15.48H4.752V0ZM25.848-26.064H14.976v-12.96H25.848c4.032,0,7.056,2.448,7.056,6.48C32.9-28.584,29.88-26.064,25.848-26.064ZM97.272,0l13.68-48.024H99.432L91.08-13.32l-9.072-34.7H74.016l-9.144,34.7-8.424-34.7H45L58.752,0H69.624l8.352-32.976L86.4,0Zm60.12,0-18.5-48.024H126.072L107.5,0H119.16l3.024-8.136h20.592L145.728,0ZM139.968-17.136H124.992L132.48-37.8Z" transform="translate(180.907 319)" fill="#506af2"/></g></svg>