<svg xmlns="http://www.w3.org/2000/svg" width="24" height="27" viewBox="0 0 24 27"><path d="M30-24H25.786a8.888,8.888,0,0,0-2.714-2.929L25.5-29.393,23.393-31.5l-3.25,3.25A9.4,9.4,0,0,0,18-28.5a8.949,8.949,0,0,0-2.107.25L12.607-31.5,10.5-29.393l2.429,2.464A8.888,8.888,0,0,0,10.214-24H6v3H9.143A9.779,9.779,0,0,0,9-19.5V-18H6v3H9v1.5A9.779,9.779,0,0,0,9.143-12H6v3h4.214a9,9,0,0,0,3.25,3.268A8.71,8.71,0,0,0,18-4.5a8.71,8.71,0,0,0,4.536-1.232A9,9,0,0,0,25.786-9H30v-3H26.857A9.779,9.779,0,0,0,27-13.5V-15h3v-3H27v-1.5a9.779,9.779,0,0,0-.143-1.5H30ZM21-12H15v-3h6Zm0-6H15v-3h6Z" transform="translate(-6 31.5)" fill="#506af2"/></svg>