<svg xmlns="http://www.w3.org/2000/svg" width="29.155" height="28.436" viewBox="0 0 29.155 28.436"><path d="M150.9,107.44a14.579,14.579,0,0,0-4.607,28.411c.729.133,1-.316,1-.7,0-.346-.013-1.263-.02-2.48-4.055.881-4.91-1.954-4.91-1.954a3.861,3.861,0,0,0-1.619-2.133c-1.324-.9.1-.886.1-.886a3.061,3.061,0,0,1,2.233,1.5,3.1,3.1,0,0,0,4.243,1.212,3.116,3.116,0,0,1,.925-1.949c-3.237-.368-6.64-1.618-6.64-7.2a5.636,5.636,0,0,1,1.5-3.912,5.237,5.237,0,0,1,.143-3.858s1.223-.392,4.008,1.494a13.824,13.824,0,0,1,7.3,0c2.783-1.886,4-1.494,4-1.494a5.239,5.239,0,0,1,.146,3.858,5.626,5.626,0,0,1,1.5,3.912c0,5.6-3.409,6.833-6.656,7.193a3.481,3.481,0,0,1,.99,2.7c0,1.949-.018,3.521-.018,4,0,.389.263.843,1,.7A14.58,14.58,0,0,0,150.9,107.44Z" transform="translate(-136.32 -107.44)" fill="#506af2" fill-rule="evenodd"/></svg>